<svg width="800" height="200" viewBox="0 0 800 200" fill="none" xmlns="http://www.w3.org/2000/svg">
<g clip-path="url(#clip0_86_20892)">
<rect width="800" height="200" fill="#02021B"/>
<line x1="432.24" y1="-149.19" x2="432.24" y2="489.299" stroke="white" stroke-opacity="0.16" stroke-width="6.69806"/>
<line x1="-149" y1="95.7413" x2="948.993" y2="95.7413" stroke="white" stroke-opacity="0.16" stroke-width="6.69806"/>
<line x1="-149" y1="33.6705" x2="948.993" y2="33.6705" stroke="white" stroke-opacity="0.16" stroke-width="6.69806"/>
<line x1="-149" y1="157.811" x2="948.993" y2="157.811" stroke="white" stroke-opacity="0.16" stroke-width="6.69806"/>
<line x1="85.5053" y1="-149.19" x2="85.5053" y2="489.299" stroke="white" stroke-opacity="0.16" stroke-width="6.69806"/>
<line x1="663.403" y1="-149.19" x2="663.403" y2="489.299" stroke="white" stroke-opacity="0.16" stroke-width="6.69806"/>
<line x1="547.818" y1="-149.19" x2="547.818" y2="489.299" stroke="white" stroke-opacity="0.16" stroke-width="6.69806"/>
<line x1="201.084" y1="-149.19" x2="201.084" y2="489.299" stroke="white" stroke-opacity="0.16" stroke-width="6.69806"/>
<line x1="778.982" y1="-149.19" x2="778.982" y2="489.299" stroke="white" stroke-opacity="0.16" stroke-width="6.69806"/>
<line x1="316.662" y1="-149.19" x2="316.662" y2="489.299" stroke="white" stroke-opacity="0.16" stroke-width="6.69806"/>
<line x1="490.03" y1="-149.19" x2="490.03" y2="489.299" stroke="white" stroke-opacity="0.16" stroke-width="6.69806"/>
<line x1="143.295" y1="-149.19" x2="143.295" y2="489.299" stroke="white" stroke-opacity="0.16" stroke-width="6.69806"/>
<line x1="721.193" y1="-149.19" x2="721.193" y2="489.299" stroke="white" stroke-opacity="0.16" stroke-width="6.69806"/>
<line x1="27.7157" y1="-149.19" x2="27.7158" y2="489.299" stroke="white" stroke-opacity="0.16" stroke-width="6.69806"/>
<line x1="605.615" y1="-149.19" x2="605.615" y2="489.299" stroke="white" stroke-opacity="0.16" stroke-width="6.69806"/>
<line x1="258.873" y1="-149.19" x2="258.873" y2="489.299" stroke="white" stroke-opacity="0.16" stroke-width="6.69806"/>
<line x1="374.451" y1="-149.19" x2="374.451" y2="489.299" stroke="white" stroke-opacity="0.16" stroke-width="6.69806"/>
<rect x="-21.9683" y="-149.19" width="855.387" height="572.96" fill="url(#paint0_radial_86_20892)" fill-opacity="0.6"/>
<g filter="url(#filter0_f_86_20892)">
<line x1="92.7978" y1="136.207" x2="92.7978" y2="230.717" stroke="url(#paint1_linear_86_20892)" stroke-width="23.4432"/>
</g>
<line x1="85.5053" y1="95.0632" x2="85.5053" y2="271.863" stroke="url(#paint2_linear_86_20892)" stroke-width="6.69806"/>
<line x1="85.5053" y1="150.713" x2="85.5053" y2="216.212" stroke="url(#paint3_linear_86_20892)" stroke-opacity="0.4" stroke-width="6.69806" style="mix-blend-mode:lighten"/>
<g filter="url(#filter1_f_86_20892)">
<line x1="728.485" y1="3.89722" x2="728.485" y2="98.4076" stroke="url(#paint4_linear_86_20892)" stroke-width="23.4432"/>
</g>
<line x1="721.193" y1="-37.2483" x2="721.193" y2="139.552" stroke="url(#paint5_linear_86_20892)" stroke-width="6.69806"/>
<line x1="721.193" y1="18.4028" x2="721.193" y2="83.9018" stroke="url(#paint6_linear_86_20892)" stroke-opacity="0.4" stroke-width="6.69806" style="mix-blend-mode:lighten"/>
<g filter="url(#filter2_f_86_20892)">
<line x1="554.898" y1="-98.3438" x2="554.898" y2="-3.83334" stroke="url(#paint7_linear_86_20892)" stroke-width="23.4432"/>
</g>
<line x1="547.606" y1="-139.488" x2="547.606" y2="37.3115" stroke="url(#paint8_linear_86_20892)" stroke-width="6.69806"/>
<g filter="url(#filter3_f_86_20892)">
<line x1="612.58" y1="184.922" x2="612.58" y2="279.433" stroke="url(#paint9_linear_86_20892)" stroke-width="23.4432"/>
</g>
<line x1="605.287" y1="143.778" x2="605.287" y2="320.577" stroke="url(#paint10_linear_86_20892)" stroke-width="6.69806"/>
<line x1="605.287" y1="199.428" x2="605.287" y2="264.927" stroke="url(#paint11_linear_86_20892)" stroke-opacity="0.4" stroke-width="6.69806" style="mix-blend-mode:lighten"/>
<rect x="1" width="800" height="204" fill="url(#paint12_linear_86_20892)"/>
<rect x="-5.28223" y="-42" width="120.124" height="120.124" transform="rotate(8 -5.28223 -42)" fill="url(#paint13_linear_86_20892)" stroke="url(#paint14_linear_86_20892)" stroke-width="2.72156"/>
<g style="mix-blend-mode:screen" opacity="0.3" filter="url(#filter4_f_86_20892)">
<rect x="354.718" y="30" width="120.229" height="120.124" transform="rotate(8 354.718 30)" fill="#5F5CFB"/>
</g>
<g filter="url(#filter5_diii_86_20892)">
<path d="M567.697 -49.9441L653.496 -37.8859L641.438 47.9126L555.639 35.8544L567.697 -49.9441Z" fill="#4A3AFF"/>
</g>
<mask id="mask0_86_20892" style="mask-type:alpha" maskUnits="userSpaceOnUse" x="555" y="-50" width="99" height="98">
<path d="M567.697 -49.9441L653.495 -37.8859L641.437 47.9126L555.639 35.8544L567.697 -49.9441Z" fill="url(#paint15_linear_86_20892)"/>
</mask>
<g mask="url(#mask0_86_20892)">
<g opacity="0.2" filter="url(#filter6_f_86_20892)">
<circle cx="578.644" cy="-57.9626" r="73.1667" transform="rotate(8 578.644 -57.9626)" fill="white"/>
</g>
<g opacity="0.2" filter="url(#filter7_f_86_20892)">
<rect x="570.073" y="-45.4857" width="80.4894" height="79.7098" transform="rotate(8 570.073 -45.4857)" stroke="white" stroke-width="5.34281"/>
</g>
</g>
<g filter="url(#filter8_f_86_20892)">
<rect x="553.718" y="-68.8152" width="120.124" height="120.124" transform="rotate(8 553.718 -68.8152)" stroke="url(#paint16_linear_86_20892)" stroke-width="16.9788"/>
</g>
<path d="M281.69 89.9801V84.9091H305.582V89.9801H296.676V114H290.596V89.9801H281.69ZM307.812 84.9091H314.701L321.335 97.4375H321.619L328.252 84.9091H335.142L324.531 103.716V114H318.423V103.716L307.812 84.9091ZM338.501 114V84.9091H349.978C352.185 84.9091 354.065 85.3305 355.618 86.1733C357.171 87.0066 358.354 88.1667 359.169 89.6534C359.993 91.1307 360.404 92.8352 360.404 94.767C360.404 96.6989 359.988 98.4034 359.154 99.8807C358.321 101.358 357.114 102.509 355.532 103.332C353.96 104.156 352.057 104.568 349.822 104.568H342.507V99.6392H348.828C350.011 99.6392 350.987 99.4356 351.754 99.0284C352.53 98.6117 353.108 98.0388 353.487 97.3097C353.875 96.571 354.069 95.7235 354.069 94.767C354.069 93.8011 353.875 92.9583 353.487 92.2386C353.108 91.5095 352.53 90.946 351.754 90.5483C350.977 90.1411 349.993 89.9375 348.799 89.9375H344.652V114H338.501ZM364.4 114V84.9091H384.002V89.9801H370.55V96.9119H382.993V101.983H370.55V108.929H384.059V114H364.4ZM404.673 93.2756C404.559 92.1297 404.072 91.2396 403.21 90.6051C402.348 89.9706 401.179 89.6534 399.701 89.6534C398.698 89.6534 397.85 89.7955 397.159 90.0795C396.467 90.3542 395.937 90.7377 395.568 91.2301C395.208 91.7225 395.028 92.2812 395.028 92.9062C395.009 93.4271 395.118 93.8816 395.355 94.2699C395.601 94.6581 395.937 94.9943 396.363 95.2784C396.789 95.553 397.282 95.7945 397.841 96.0028C398.399 96.2017 398.996 96.3722 399.63 96.5142L402.244 97.1392C403.513 97.4233 404.678 97.8021 405.738 98.2756C406.799 98.7491 407.717 99.3314 408.494 100.023C409.27 100.714 409.872 101.528 410.298 102.466C410.734 103.403 410.956 104.478 410.966 105.69C410.956 107.471 410.502 109.014 409.602 110.321C408.712 111.618 407.424 112.627 405.738 113.347C404.062 114.057 402.04 114.412 399.673 114.412C397.324 114.412 395.279 114.052 393.537 113.332C391.804 112.613 390.449 111.547 389.474 110.136C388.508 108.716 388.002 106.959 387.954 104.866H393.906C393.972 105.842 394.252 106.656 394.744 107.31C395.246 107.954 395.913 108.441 396.747 108.773C397.59 109.095 398.541 109.256 399.602 109.256C400.644 109.256 401.548 109.104 402.315 108.801C403.092 108.498 403.693 108.077 404.119 107.537C404.545 106.997 404.758 106.377 404.758 105.676C404.758 105.023 404.564 104.473 404.176 104.028C403.797 103.583 403.238 103.205 402.5 102.892C401.77 102.58 400.876 102.295 399.815 102.04L396.647 101.244C394.195 100.648 392.258 99.715 390.838 98.446C389.417 97.1771 388.712 95.4678 388.721 93.3182C388.712 91.5568 389.181 90.018 390.127 88.7017C391.084 87.3854 392.395 86.358 394.062 85.6193C395.729 84.8807 397.623 84.5114 399.744 84.5114C401.903 84.5114 403.788 84.8807 405.397 85.6193C407.017 86.358 408.276 87.3854 409.176 88.7017C410.075 90.018 410.539 91.5426 410.568 93.2756H404.673ZM440.77 95.0938H434.549C434.435 94.2888 434.203 93.5739 433.853 92.9489C433.502 92.3144 433.052 91.7746 432.503 91.3295C431.954 90.8845 431.319 90.5436 430.6 90.3068C429.89 90.0701 429.118 89.9517 428.284 89.9517C426.779 89.9517 425.467 90.3258 424.35 91.0739C423.232 91.8125 422.366 92.892 421.75 94.3125C421.135 95.7235 420.827 97.4375 420.827 99.4545C420.827 101.528 421.135 103.271 421.75 104.682C422.375 106.093 423.247 107.158 424.364 107.878C425.481 108.598 426.774 108.957 428.242 108.957C429.066 108.957 429.828 108.848 430.529 108.631C431.239 108.413 431.869 108.096 432.418 107.679C432.967 107.253 433.422 106.737 433.782 106.131C434.151 105.525 434.407 104.833 434.549 104.057L440.77 104.085C440.609 105.42 440.207 106.708 439.563 107.949C438.928 109.18 438.071 110.283 436.992 111.259C435.922 112.224 434.643 112.991 433.157 113.56C431.679 114.118 430.008 114.398 428.142 114.398C425.548 114.398 423.228 113.811 421.182 112.636C419.146 111.462 417.536 109.762 416.353 107.537C415.178 105.312 414.591 102.617 414.591 99.4545C414.591 96.2822 415.188 93.5833 416.381 91.358C417.574 89.1326 419.194 87.4375 421.239 86.2727C423.284 85.0985 425.586 84.5114 428.142 84.5114C429.828 84.5114 431.391 84.7481 432.83 85.2216C434.279 85.6951 435.562 86.3864 436.679 87.2955C437.797 88.1951 438.706 89.2983 439.407 90.6051C440.117 91.9119 440.571 93.4081 440.77 95.0938ZM445.181 114V84.9091H456.658C458.855 84.9091 460.73 85.3021 462.283 86.0881C463.846 86.8646 465.034 87.9678 465.848 89.3977C466.672 90.8182 467.084 92.4896 467.084 94.4119C467.084 96.3437 466.667 98.0057 465.834 99.3977C465.001 100.78 463.793 101.841 462.212 102.58C460.64 103.318 458.737 103.688 456.502 103.688H448.817V98.7443H455.507C456.682 98.7443 457.657 98.5833 458.434 98.2614C459.21 97.9394 459.788 97.4564 460.167 96.8125C460.555 96.1686 460.749 95.3684 460.749 94.4119C460.749 93.446 460.555 92.6316 460.167 91.9688C459.788 91.3059 459.205 90.804 458.419 90.4631C457.643 90.1127 456.663 89.9375 455.479 89.9375H451.331V114H445.181ZM460.891 100.761L468.121 114H461.331L454.257 100.761H460.891ZM477.581 84.9091V114H471.431V84.9091H477.581ZM482.642 114V84.9091H494.119C496.325 84.9091 498.205 85.3305 499.758 86.1733C501.311 87.0066 502.495 88.1667 503.309 89.6534C504.133 91.1307 504.545 92.8352 504.545 94.767C504.545 96.6989 504.128 98.4034 503.295 99.8807C502.462 101.358 501.254 102.509 499.673 103.332C498.101 104.156 496.198 104.568 493.963 104.568H486.647V99.6392H492.968C494.152 99.6392 495.127 99.4356 495.895 99.0284C496.671 98.6117 497.249 98.0388 497.627 97.3097C498.016 96.571 498.21 95.7235 498.21 94.767C498.21 93.8011 498.016 92.9583 497.627 92.2386C497.249 91.5095 496.671 90.946 495.895 90.5483C495.118 90.1411 494.133 89.9375 492.94 89.9375H488.792V114H482.642ZM507.432 89.9801V84.9091H531.324V89.9801H522.418V114H516.338V89.9801H507.432Z" fill="white"/>
</g>
<defs>
<filter id="filter0_f_86_20892" x="47.5859" y="102.717" width="90.424" height="161.491" filterUnits="userSpaceOnUse" color-interpolation-filters="sRGB">
<feFlood flood-opacity="0" result="BackgroundImageFix"/>
<feBlend mode="normal" in="SourceGraphic" in2="BackgroundImageFix" result="shape"/>
<feGaussianBlur stdDeviation="16.7451" result="effect1_foregroundBlur_86_20892"/>
</filter>
<filter id="filter1_f_86_20892" x="683.273" y="-29.5931" width="90.424" height="161.491" filterUnits="userSpaceOnUse" color-interpolation-filters="sRGB">
<feFlood flood-opacity="0" result="BackgroundImageFix"/>
<feBlend mode="normal" in="SourceGraphic" in2="BackgroundImageFix" result="shape"/>
<feGaussianBlur stdDeviation="16.7451" result="effect1_foregroundBlur_86_20892"/>
</filter>
<filter id="filter2_f_86_20892" x="509.686" y="-131.834" width="90.424" height="161.491" filterUnits="userSpaceOnUse" color-interpolation-filters="sRGB">
<feFlood flood-opacity="0" result="BackgroundImageFix"/>
<feBlend mode="normal" in="SourceGraphic" in2="BackgroundImageFix" result="shape"/>
<feGaussianBlur stdDeviation="16.7451" result="effect1_foregroundBlur_86_20892"/>
</filter>
<filter id="filter3_f_86_20892" x="567.368" y="151.432" width="90.424" height="161.491" filterUnits="userSpaceOnUse" color-interpolation-filters="sRGB">
<feFlood flood-opacity="0" result="BackgroundImageFix"/>
<feBlend mode="normal" in="SourceGraphic" in2="BackgroundImageFix" result="shape"/>
<feGaussianBlur stdDeviation="16.7451" result="effect1_foregroundBlur_86_20892"/>
</filter>
<filter id="filter4_f_86_20892" x="256.502" y="-51.498" width="298.772" height="298.683" filterUnits="userSpaceOnUse" color-interpolation-filters="sRGB">
<feFlood flood-opacity="0" result="BackgroundImageFix"/>
<feBlend mode="normal" in="SourceGraphic" in2="BackgroundImageFix" result="shape"/>
<feGaussianBlur stdDeviation="40.749" result="effect1_foregroundBlur_86_20892"/>
</filter>
<filter id="filter5_diii_86_20892" x="545.884" y="-55.1088" width="117.367" height="117.368" filterUnits="userSpaceOnUse" color-interpolation-filters="sRGB">
<feFlood flood-opacity="0" result="BackgroundImageFix"/>
<feColorMatrix in="SourceAlpha" type="matrix" values="0 0 0 0 0 0 0 0 0 0 0 0 0 0 0 0 0 0 127 0" result="hardAlpha"/>
<feOffset dy="4.59082"/>
<feGaussianBlur stdDeviation="4.87775"/>
<feColorMatrix type="matrix" values="0 0 0 0 0.286275 0 0 0 0 0.447059 0 0 0 0 1 0 0 0 0.09 0"/>
<feBlend mode="normal" in2="BackgroundImageFix" result="effect1_dropShadow_86_20892"/>
<feBlend mode="normal" in="SourceGraphic" in2="effect1_dropShadow_86_20892" result="shape"/>
<feColorMatrix in="SourceAlpha" type="matrix" values="0 0 0 0 0 0 0 0 0 0 0 0 0 0 0 0 0 0 127 0" result="hardAlpha"/>
<feOffset dy="10.8228"/>
<feGaussianBlur stdDeviation="16.2341"/>
<feComposite in2="hardAlpha" operator="arithmetic" k2="-1" k3="1"/>
<feColorMatrix type="matrix" values="0 0 0 0 1 0 0 0 0 1 0 0 0 0 1 0 0 0 0.17 0"/>
<feBlend mode="normal" in2="shape" result="effect2_innerShadow_86_20892"/>
<feColorMatrix in="SourceAlpha" type="matrix" values="0 0 0 0 0 0 0 0 0 0 0 0 0 0 0 0 0 0 127 0" result="hardAlpha"/>
<feOffset dx="1.35284" dy="1.35284"/>
<feGaussianBlur stdDeviation="0.676422"/>
<feComposite in2="hardAlpha" operator="arithmetic" k2="-1" k3="1"/>
<feColorMatrix type="matrix" values="0 0 0 0 1 0 0 0 0 1 0 0 0 0 1 0 0 0 0.4 0"/>
<feBlend mode="normal" in2="effect2_innerShadow_86_20892" result="effect3_innerShadow_86_20892"/>
<feColorMatrix in="SourceAlpha" type="matrix" values="0 0 0 0 0 0 0 0 0 0 0 0 0 0 0 0 0 0 127 0" result="hardAlpha"/>
<feOffset dx="-1.35284" dy="-1.35284"/>
<feGaussianBlur stdDeviation="3.13098"/>
<feComposite in2="hardAlpha" operator="arithmetic" k2="-1" k3="1"/>
<feColorMatrix type="matrix" values="0 0 0 0 0.286275 0 0 0 0 0.447059 0 0 0 0 1 0 0 0 0.25 0"/>
<feBlend mode="normal" in2="effect3_innerShadow_86_20892" result="effect4_innerShadow_86_20892"/>
</filter>
<filter id="filter6_f_86_20892" x="2.05865" y="-634.549" width="1153.17" height="1153.17" filterUnits="userSpaceOnUse" color-interpolation-filters="sRGB">
<feFlood flood-opacity="0" result="BackgroundImageFix"/>
<feBlend mode="normal" in="SourceGraphic" in2="BackgroundImageFix" result="shape"/>
<feGaussianBlur stdDeviation="251.705" result="effect1_foregroundBlur_86_20892"/>
</filter>
<filter id="filter7_f_86_20892" x="550.62" y="-53.8457" width="107.52" height="106.856" filterUnits="userSpaceOnUse" color-interpolation-filters="sRGB">
<feFlood flood-opacity="0" result="BackgroundImageFix"/>
<feBlend mode="normal" in="SourceGraphic" in2="BackgroundImageFix" result="shape"/>
<feGaussianBlur stdDeviation="2.6714" result="effect1_foregroundBlur_86_20892"/>
</filter>
<filter id="filter8_f_86_20892" x="445.914" y="-159.901" width="317.845" height="317.845" filterUnits="userSpaceOnUse" color-interpolation-filters="sRGB">
<feFlood flood-opacity="0" result="BackgroundImageFix"/>
<feBlend mode="normal" in="SourceGraphic" in2="BackgroundImageFix" result="shape"/>
<feGaussianBlur stdDeviation="40.749" result="effect1_foregroundBlur_86_20892"/>
</filter>
<radialGradient id="paint0_radial_86_20892" cx="0" cy="0" r="1" gradientUnits="userSpaceOnUse" gradientTransform="translate(405.725 137.29) rotate(90) scale(286.48 427.694)">
<stop stop-color="#03031C" stop-opacity="0"/>
<stop offset="1" stop-color="#03031C"/>
</radialGradient>
<linearGradient id="paint1_linear_86_20892" x1="80.077" y1="136.978" x2="80.077" y2="230.717" gradientUnits="userSpaceOnUse">
<stop stop-color="#6052FF" stop-opacity="0"/>
<stop offset="0.47964" stop-color="#6052FF"/>
<stop offset="1" stop-color="#6052FF" stop-opacity="0"/>
</linearGradient>
<linearGradient id="paint2_linear_86_20892" x1="81.157" y1="96.5055" x2="81.157" y2="271.863" gradientUnits="userSpaceOnUse">
<stop stop-color="#6052FF" stop-opacity="0"/>
<stop offset="0.47964" stop-color="#6052FF"/>
<stop offset="1" stop-color="#6052FF" stop-opacity="0"/>
</linearGradient>
<linearGradient id="paint3_linear_86_20892" x1="81.157" y1="151.248" x2="81.157" y2="216.212" gradientUnits="userSpaceOnUse">
<stop stop-color="white" stop-opacity="0"/>
<stop offset="0.47964" stop-color="white"/>
<stop offset="1" stop-color="white" stop-opacity="0"/>
</linearGradient>
<linearGradient id="paint4_linear_86_20892" x1="715.764" y1="4.66819" x2="715.764" y2="98.4076" gradientUnits="userSpaceOnUse">
<stop stop-color="#6052FF" stop-opacity="0"/>
<stop offset="0.47964" stop-color="#6052FF"/>
<stop offset="1" stop-color="#6052FF" stop-opacity="0"/>
</linearGradient>
<linearGradient id="paint5_linear_86_20892" x1="716.845" y1="-35.806" x2="716.845" y2="139.552" gradientUnits="userSpaceOnUse">
<stop stop-color="#6052FF" stop-opacity="0"/>
<stop offset="0.47964" stop-color="#6052FF"/>
<stop offset="1" stop-color="#6052FF" stop-opacity="0"/>
</linearGradient>
<linearGradient id="paint6_linear_86_20892" x1="716.845" y1="18.9371" x2="716.845" y2="83.9018" gradientUnits="userSpaceOnUse">
<stop stop-color="white" stop-opacity="0"/>
<stop offset="0.47964" stop-color="white"/>
<stop offset="1" stop-color="white" stop-opacity="0"/>
</linearGradient>
<linearGradient id="paint7_linear_86_20892" x1="542.178" y1="-97.5728" x2="542.178" y2="-3.83334" gradientUnits="userSpaceOnUse">
<stop stop-color="#6052FF" stop-opacity="0"/>
<stop offset="0.47964" stop-color="#6052FF"/>
<stop offset="1" stop-color="#6052FF" stop-opacity="0"/>
</linearGradient>
<linearGradient id="paint8_linear_86_20892" x1="543.258" y1="-138.046" x2="543.258" y2="37.3115" gradientUnits="userSpaceOnUse">
<stop stop-color="#6052FF" stop-opacity="0"/>
<stop offset="0.47964" stop-color="#6052FF"/>
<stop offset="1" stop-color="#6052FF" stop-opacity="0"/>
</linearGradient>
<linearGradient id="paint9_linear_86_20892" x1="599.859" y1="185.693" x2="599.859" y2="279.433" gradientUnits="userSpaceOnUse">
<stop stop-color="#6052FF" stop-opacity="0"/>
<stop offset="0.47964" stop-color="#6052FF"/>
<stop offset="1" stop-color="#6052FF" stop-opacity="0"/>
</linearGradient>
<linearGradient id="paint10_linear_86_20892" x1="600.939" y1="145.22" x2="600.939" y2="320.577" gradientUnits="userSpaceOnUse">
<stop stop-color="#6052FF" stop-opacity="0"/>
<stop offset="0.47964" stop-color="#6052FF"/>
<stop offset="1" stop-color="#6052FF" stop-opacity="0"/>
</linearGradient>
<linearGradient id="paint11_linear_86_20892" x1="600.939" y1="199.962" x2="600.939" y2="264.927" gradientUnits="userSpaceOnUse">
<stop stop-color="white" stop-opacity="0"/>
<stop offset="0.47964" stop-color="white"/>
<stop offset="1" stop-color="white" stop-opacity="0"/>
</linearGradient>
<linearGradient id="paint12_linear_86_20892" x1="401" y1="0" x2="401" y2="204" gradientUnits="userSpaceOnUse">
<stop stop-color="#02021B" stop-opacity="0"/>
<stop offset="1" stop-color="#02021B"/>
</linearGradient>
<linearGradient id="paint13_linear_86_20892" x1="35.2279" y1="-40.5934" x2="63.9225" y2="64.761" gradientUnits="userSpaceOnUse">
<stop stop-color="#333371"/>
<stop offset="1" stop-color="#111138"/>
</linearGradient>
<linearGradient id="paint14_linear_86_20892" x1="54.7796" y1="-42" x2="54.7796" y2="78.1237" gradientUnits="userSpaceOnUse">
<stop stop-color="#A59DFF"/>
<stop offset="1" stop-color="#4E3FFF"/>
</linearGradient>
<linearGradient id="paint15_linear_86_20892" x1="614.196" y1="-44.9265" x2="602.572" y2="42.5252" gradientUnits="userSpaceOnUse">
<stop stop-color="#46A6FF"/>
<stop offset="1" stop-color="#4972FF"/>
</linearGradient>
<linearGradient id="paint16_linear_86_20892" x1="613.78" y1="-68.8152" x2="613.78" y2="51.3085" gradientUnits="userSpaceOnUse">
<stop stop-color="#A59DFF"/>
<stop offset="1" stop-color="#4E3FFF"/>
</linearGradient>
<clipPath id="clip0_86_20892">
<rect width="800" height="200" fill="white"/>
</clipPath>
</defs>
</svg>
